<?xml version="1.0" standalone="no"?>
<!DOCTYPE svg PUBLIC "-//W3C//DTD SVG 20010904//EN"
 "http://www.w3.org/TR/2001/REC-SVG-20010904/DTD/svg10.dtd">
<svg version="1.0" xmlns="http://www.w3.org/2000/svg"
 width="219.000000pt" height="67.000000pt" viewBox="0 0 259.000000 67.000000"
 preserveAspectRatio="xMidYMid meet">

<g transform="translate(0.000000,67.000000) scale(0.100000,-0.100000)"
fill="#ffffff" stroke="none">
<path d="M227 625 c-20 -7 -45 -19 -54 -26 -23 -19 -43 -72 -43 -113 0 -29 3
-33 20 -29 15 4 20 14 20 38 0 22 9 43 29 64 62 66 181 25 181 -63 0 -29 4
-36 20 -36 16 0 20 7 20 33 0 96 -100 164 -193 132z"/>
<path d="M813 459 c-54 -16 -78 -72 -52 -120 6 -11 39 -33 75 -49 50 -23 64
-34 64 -51 0 -19 -4 -21 -52 -17 -29 2 -61 8 -70 12 -15 7 -18 3 -18 -22 0
-28 3 -31 49 -41 113 -24 193 31 162 112 -8 20 -29 36 -78 60 -91 43 -91 62
-1 61 57 0 67 2 71 18 3 11 -2 22 -11 27 -28 15 -105 21 -139 10z"/>
<path d="M2210 315 l0 -155 35 0 35 0 0 155 0 155 -35 0 -35 0 0 -155z"/>
<path d="M168 436 c-83 -22 -94 -35 -101 -114 -4 -38 -4 -104 -1 -145 l7 -76
42 -20 c94 -44 231 -44 321 0 41 19 41 20 48 87 3 37 6 99 6 137 l0 70 -58
-60 c-31 -33 -78 -85 -103 -115 l-46 -54 -66 59 c-64 57 -65 59 -49 81 21 30
24 29 73 -3 l40 -27 81 81 81 81 -53 16 c-63 19 -156 20 -222 2z"/>
<path d="M2373 389 c-47 -50 -51 -59 -28 -59 12 0 15 -13 15 -56 0 -30 5 -64
11 -75 13 -26 55 -41 91 -34 39 9 36 33 -4 37 -33 3 -33 3 -36 66 l-3 62 36 0
c28 0 35 4 35 20 0 16 -7 20 -34 20 -32 0 -35 3 -38 33 l-3 32 -42 -46z"/>
<path d="M1080 359 c-63 -25 -82 -114 -35 -162 25 -25 79 -42 106 -33 8 2 26
7 42 10 18 4 27 13 27 27 0 16 -3 18 -19 9 -31 -16 -86 -12 -104 8 -31 35 -21
42 58 42 41 0 75 2 75 5 0 15 -29 71 -41 82 -21 17 -81 24 -109 12z m88 -51
c3 -15 -4 -18 -42 -18 -25 0 -46 4 -46 8 0 34 82 42 88 10z"/>
<path d="M1343 363 c-30 -6 -70 -48 -76 -81 -9 -44 22 -95 66 -109 46 -15 117
-7 117 13 0 10 -13 14 -43 14 -52 0 -77 22 -77 67 0 39 28 63 72 63 23 0 38 6
42 15 3 9 0 15 -8 15 -7 0 -26 2 -42 4 -16 2 -39 2 -51 -1z"/>
<path d="M1500 292 c0 -86 13 -116 55 -126 16 -4 38 -1 55 8 24 12 29 12 34 0
3 -8 17 -14 31 -14 l25 0 0 105 0 105 -27 0 c-28 0 -28 -1 -31 -72 -4 -82 -14
-100 -51 -96 -25 3 -26 5 -29 86 l-3 82 -29 0 -30 0 0 -78z"/>
<path d="M1760 326 c0 -23 3 -71 6 -105 6 -56 9 -61 30 -61 22 0 24 4 24 49 0
64 30 105 70 97 23 -4 29 -1 34 17 4 14 0 26 -11 35 -24 18 -32 15 -64 -19
l-29 -31 0 31 c0 28 -3 31 -30 31 -29 0 -30 -2 -30 -44z"/>
<path d="M2002 355 c-63 -28 -75 -133 -19 -169 52 -34 158 -23 165 17 3 16 1
17 -16 8 -48 -26 -122 -5 -122 35 0 11 16 14 70 14 64 0 70 2 70 21 0 33 -19
60 -55 75 -42 17 -51 17 -93 -1z m96 -47 c3 -15 -4 -18 -42 -18 -32 0 -46 4
-46 13 0 22 12 28 50 25 24 -2 36 -9 38 -20z"/>
</g>
</svg>
