<?xml version="1.0" standalone="no"?>
<!DOCTYPE svg PUBLIC "-//W3C//DTD SVG 20010904//EN"
 "http://www.w3.org/TR/2001/REC-SVG-20010904/DTD/svg10.dtd">
<svg version="1.0" xmlns="http://www.w3.org/2000/svg"
 width="500.000000pt" height="500.000000pt" viewBox="0 0 500.000000 500.000000"
 preserveAspectRatio="xMidYMid meet">

<g transform="translate(0.000000,500.000000) scale(0.100000,-0.100000)"
fill="#ffffff" stroke="none">
<path d="M1850 4953 c-340 -26 -557 -63 -893 -152 -463 -122 -833 -392 -902
-657 -39 -151 -2 -273 135 -448 43 -54 145 -146 163 -146 3 0 41 -22 84 -48
134 -82 284 -150 457 -207 229 -76 415 -117 676 -150 161 -21 615 -29 865 -17
529 27 1015 163 1385 388 102 63 138 91 198 158 187 208 221 389 109 588 -44
78 -186 221 -287 289 -97 66 -333 181 -435 213 -187 59 -435 116 -630 146
-270 41 -696 61 -925 43z"/>
<path d="M43 3340 l2 -355 25 -60 c35 -83 92 -165 159 -231 155 -152 518 -338
770 -395 470 -106 640 -129 1011 -136 350 -7 617 13 918 70 l63 12 76 147 c89
173 153 255 280 355 185 147 310 213 492 259 102 26 291 49 329 39 l22 -5 -1
322 c-1 307 -1 321 -16 278 -25 -69 -88 -157 -182 -250 -156 -155 -326 -246
-671 -358 -410 -133 -869 -189 -1394 -170 -279 10 -579 50 -807 108 -83 21
-293 89 -427 138 -191 70 -420 221 -504 332 -83 108 -119 166 -133 209 -13 42
-14 15 -12 -309z"/>
<path d="M42 2375 c4 -393 5 -399 79 -505 75 -106 115 -151 184 -205 241 -191
638 -339 1125 -419 248 -41 578 -61 834 -51 l183 7 238 238 237 237 2 143 1
142 -40 -6 c-22 -3 -84 -12 -138 -20 -296 -45 -793 -56 -1084 -23 -460 52
-827 152 -1103 299 -52 28 -115 61 -140 74 -133 67 -259 198 -335 349 l-46 90
3 -350z"/>
<path d="M4040 2650 c-142 -17 -298 -81 -409 -168 -75 -59 -190 -201 -236
-292 -62 -123 -80 -206 -79 -365 0 -229 38 -327 211 -555 44 -57 151 -141 231
-181 96 -47 245 -79 372 -79 235 -1 409 64 566 213 46 43 89 91 97 105 7 15
34 61 60 102 27 44 57 112 73 165 24 79 27 107 27 230 0 123 -3 151 -26 228
-31 101 -61 164 -120 250 -165 242 -476 382 -767 347z m479 -279 c71 -27 136
-85 162 -145 17 -41 21 -64 17 -127 -7 -125 -65 -203 -177 -239 -79 -25 -112
-25 -193 0 -193 59 -247 328 -91 456 87 71 188 91 282 55z"/>
<path d="M40 1439 c0 -371 3 -392 65 -504 45 -80 139 -191 207 -242 115 -87
368 -210 569 -277 299 -100 582 -152 975 -180 l82 -6 4 162 c7 238 44 341 168
472 l70 73 -223 6 c-122 3 -280 13 -352 22 -122 15 -354 53 -365 60 -3 2 -40
8 -83 14 -43 6 -101 18 -130 27 -337 103 -512 185 -717 338 -121 90 -208 201
-251 319 l-18 52 -1 -336z"/>
<path d="M2767 967 l-427 -428 -11 -77 c-20 -140 6 -311 56 -371 34 -40 113
-62 245 -68 144 -7 214 7 260 52 l36 35 126 0 c111 0 128 2 151 21 26 20 26
23 29 152 l3 132 136 5 c93 3 141 9 152 18 13 12 17 39 19 150 l3 137 137 3
c134 3 137 3 157 29 12 14 21 38 21 54 0 24 -6 29 -52 45 -94 31 -193 81 -258
130 -123 92 -115 90 -160 54 -21 -17 -105 -99 -185 -183 -81 -84 -235 -237
-342 -341 -185 -179 -196 -188 -226 -182 -62 12 -102 79 -77 128 7 13 177 188
378 390 l365 366 -40 64 c-23 35 -47 74 -54 88 -14 25 -17 22 -442 -403z"/>
</g>
</svg>
