<?xml version="1.0" standalone="no"?>
<!DOCTYPE svg PUBLIC "-//W3C//DTD SVG 20010904//EN"
 "http://www.w3.org/TR/2001/REC-SVG-20010904/DTD/svg10.dtd">
<svg version="1.0" xmlns="http://www.w3.org/2000/svg"
 width="256.000000pt" height="256.000000pt" viewBox="0 0 256.000000 256.000000"
 preserveAspectRatio="xMidYMid meet">

<g transform="translate(0.000000,256.000000) scale(0.100000,-0.100000)"
fill="#ffffff" stroke="none">
<path d="M617 2509 c-106 -25 -204 -110 -233 -203 l-16 -52 -52 0 c-145 0
-252 -112 -264 -275 -6 -82 16 -153 61 -199 40 -41 81 -59 157 -67 l60 -6 0
-213 0 -214 -40 0 c-22 0 -40 -3 -40 -6 0 -3 23 -34 50 -69 28 -35 50 -66 50
-69 0 -3 -13 -6 -28 -6 -43 0 -148 -56 -182 -98 -23 -28 -32 -34 -42 -24 -23
23 -28 11 -28 -73 0 -47 3 -85 6 -85 13 0 144 74 144 82 0 4 -7 11 -15 16 -59
33 108 122 197 105 217 -41 259 -324 63 -425 -48 -25 -134 -28 -185 -6 -45 19
-99 72 -117 115 -14 34 -35 41 -76 25 -16 -7 -15 -13 14 -70 36 -74 95 -124
175 -149 l54 -17 0 -231 c0 -166 3 -234 12 -243 17 -17 1429 -17 1446 0 8 8
12 52 12 130 l0 118 40 0 c22 0 40 3 40 6 0 16 -113 145 -120 137 -5 -4 -32
-37 -60 -73 l-52 -65 38 -5 39 -5 0 -90 0 -90 -657 -3 -658 -2 0 210 c0 193 1
210 18 210 38 0 119 49 164 99 60 67 82 131 76 220 -10 138 -109 252 -241 276
-20 4 -37 10 -37 13 0 3 20 32 45 63 25 32 45 62 45 68 0 6 -16 11 -35 11
l-35 0 0 215 0 215 458 0 c497 0 518 2 588 55 129 99 99 340 -50 401 -40 17
-46 23 -52 59 -8 51 -25 83 -61 116 -67 63 -168 85 -248 54 l-46 -17 -39 41
c-21 22 -54 48 -72 57 -77 40 -185 53 -271 33z m152 -100 c105 -22 163 -94
177 -215 8 -69 17 -84 53 -84 42 0 51 17 51 97 l0 73 35 17 c45 21 103 6 139
-38 28 -33 32 -64 14 -104 -8 -19 -8 -31 0 -50 10 -21 18 -25 57 -25 60 0 98
-21 119 -64 32 -68 16 -133 -43 -173 l-34 -23 -553 0 -552 0 -31 26 c-65 54
-62 180 6 255 42 47 84 57 165 40 76 -15 98 -5 98 47 0 112 67 195 177 221 53
12 65 12 122 0z m-329 -1155 c0 -5 -15 -26 -68 -94 -3 -5 -20 15 -63 73 l-20
27 75 0 c42 0 76 -3 76 -6z m-299 -296 c22 -12 39 -25 39 -28 0 -5 -33 -24
-82 -48 -5 -2 -8 19 -8 47 0 28 3 51 6 51 4 0 24 -10 45 -22z m1667 -590 l33
-43 -41 -3 c-22 -2 -56 -2 -75 0 l-34 3 32 42 c18 23 37 42 42 43 6 0 25 -19
43 -42z"/>
<path d="M1563 1246 c-94 -31 -183 -115 -207 -195 l-13 -46 -65 -7 c-77 -7
-133 -34 -176 -83 -42 -47 -57 -79 -72 -149 -23 -110 15 -223 92 -273 l42 -28
570 -3 c431 -2 582 0 616 10 58 16 131 87 148 144 35 120 -11 239 -112 289
-46 23 -51 29 -63 77 -18 69 -51 110 -115 142 -62 31 -151 35 -200 10 l-30
-16 -47 46 c-67 66 -127 89 -236 93 -57 2 -105 -2 -132 -11z m251 -120 c66
-39 95 -88 105 -176 5 -53 12 -76 26 -86 26 -19 42 -17 66 7 19 19 21 30 16
86 -5 62 -4 64 24 78 40 21 81 18 120 -8 47 -31 64 -69 50 -109 -25 -72 -7
-98 71 -98 24 0 50 -6 59 -13 50 -39 68 -131 35 -181 -41 -64 -15 -61 -627
-61 -543 0 -557 1 -579 20 -67 61 -67 182 1 260 43 49 94 61 165 40 51 -15 58
-15 80 0 19 12 24 24 24 61 0 99 57 171 160 205 50 17 155 4 204 -25z"/>
<path d="M360 896 l0 -76 74 0 c41 0 78 5 81 10 4 6 -20 10 -64 10 l-71 0 0
59 c0 33 -4 63 -10 66 -6 4 -10 -22 -10 -69z"/>
</g>
</svg>
