<?xml version="1.0" standalone="no"?>
<!DOCTYPE svg PUBLIC "-//W3C//DTD SVG 20010904//EN"
 "http://www.w3.org/TR/2001/REC-SVG-20010904/DTD/svg10.dtd">
<svg version="1.0" xmlns="http://www.w3.org/2000/svg"
 width="361.000000pt" height="295.000000pt" viewBox="0 0 361.000000 295.000000"
 preserveAspectRatio="xMidYMid meet">

<g transform="translate(0.000000,295.000000) scale(0.100000,-0.100000)"
fill="#000000" stroke="none">
<path d="M1708 2695 c-147 -37 -270 -123 -355 -247 -73 -109 -95 -182 -101
-345 -2 -73 0 -133 4 -133 5 0 43 10 84 23 l75 23 6 91 c4 50 12 109 19 130
66 207 278 333 487 289 89 -18 143 -45 205 -104 89 -83 125 -167 136 -311 l7
-93 57 -18 c32 -10 69 -21 83 -24 l25 -6 0 108 c0 237 -90 416 -272 536 -122
81 -321 116 -460 81z"/>
<path d="M1750 1983 c-96 -9 -245 -38 -357 -69 -220 -60 -360 -142 -383 -222
-13 -50 -13 -984 0 -1034 45 -160 582 -323 950 -288 264 25 541 111 667 207
64 49 63 38 63 597 0 278 -2 506 -5 506 -7 0 -114 -114 -206 -220 -41 -47
-123 -139 -184 -205 -107 -117 -318 -360 -381 -439 l-31 -39 -84 80 c-106 102
-232 210 -342 293 -48 36 -86 71 -87 78 0 10 108 161 140 195 6 7 251 -147
346 -218 20 -15 26 -10 155 127 73 79 214 224 311 322 98 99 178 182 178 187
0 11 -153 64 -270 92 -177 44 -357 63 -480 50z"/>
</g>
</svg>
