<svg xmlns="http://www.w3.org/2000/svg" viewBox="0 0 283.46 240.94"><defs><style>.cls-1{fill:white;}.cls-2{fill:white;}.cls-3{fill:white;}.cls-4{fill:grey;}</style></defs><g id="Layer_2" data-name="Layer 2"><path class="cls-1" d="M263.77,12.45H21.09a6.22,6.22,0,0,0-6.24,6.26V168.46a6.21,6.21,0,0,0,6.24,6.21H263.77a6.21,6.21,0,0,0,6.2-6.21V18.71A6.22,6.22,0,0,0,263.77,12.45ZM256,153.37c0,3.42-3.07,6.2-6.88,6.2H35.7c-3.82,0-6.93-2.78-6.93-6.2V33.76c0-3.43,3.11-6.21,6.93-6.21H249.11c3.81,0,6.88,2.78,6.88,6.21Z"/><path class="cls-2" d="M175.3,216.27H160.05V177.8H124.79v38.47H109.54a6.23,6.23,0,0,0-6.23,6.24v6h78.21v-6A6.22,6.22,0,0,0,175.3,216.27Z"/><path class="cls-3" d="M116.22,133.73a3.12,3.12,0,0,0,4.3,1.07,3.15,3.15,0,0,0,1.08-4.32l-3.83-6.38a3.15,3.15,0,0,0-5.39,3.25Z"/><path class="cls-4" d="M204.48,79.35a7,7,0,0,0-6.73-7.23l-30,.06c-1-3.92-.33-7.07.83-8.82,1.8-2.72,6.71-7.2,5.8-14.74a20.73,20.73,0,0,0-3.32-8.32c-4.35-5.69-10.68-4.36-10.67.76,0,6.08-2.38,15.1-9.34,19.71-11.39,7.55-18,21.65-18,21.7s-1.43,1.51-3.19,3.29L119.36,95a4.28,4.28,0,0,0-1.39,6l15.46,26.73a4.27,4.27,0,0,0,5.92,1.79l.2-.1c1.66-1,3.92-.57,6.81-.7l8.3,0H160l11.21,0,13,0a7,7,0,0,0,6.7-7.26,7.22,7.22,0,0,0-4.6-6.87h2.84a7,7,0,0,0,6.7-7.26,7.32,7.32,0,0,0-3.7-6.46h1.46a7,7,0,0,0,6.7-7.26,7.23,7.23,0,0,0-4.73-6.91h2.21A7,7,0,0,0,204.48,79.35Z"/><path class="cls-4" d="M113.21,97.56h0a2.18,2.18,0,0,0-1.53-1,3.12,3.12,0,0,0-2,.38L93,106.52A2.59,2.59,0,0,0,91.76,110l20.77,36.21h0a2.18,2.18,0,0,0,1.54,1,3,3,0,0,0,2-.38l16.63-9.61a2.62,2.62,0,0,0,1.24-3.44Zm3,43.78L97.75,109.22l11.82-6.83L128,134.51Z"/></g></svg>